<?xml version="1.0" encoding="UTF-8" standalone="no"?>
<!-- Created with Inkscape (http://www.inkscape.org/) -->

<svg
   xmlns:dc="http://purl.org/dc/elements/1.1/"
   xmlns:cc="http://creativecommons.org/ns#"
   xmlns:rdf="http://www.w3.org/1999/02/22-rdf-syntax-ns#"
   xmlns:svg="http://www.w3.org/2000/svg"
   xmlns="http://www.w3.org/2000/svg"
   xmlns:sodipodi="http://sodipodi.sourceforge.net/DTD/sodipodi-0.dtd"
   xmlns:inkscape="http://www.inkscape.org/namespaces/inkscape"
   width="51.850796mm"
   height="77.82mm"
   viewBox="0 0 51.850796 77.82"
   version="1.1"
   id="svg8"
   inkscape:version="0.92.4 (f8dce91, 2019-08-02)"
   sodipodi:docname="logoColor.svg">
  <defs
     id="defs2">
    <style
       id="style10"
       type="text/css">
   <![CDATA[
    .fil3 {fill:#2B2A29}
    .fil0 {fill:#112740}
    .fil1 {fill:#3276BF}
    .fil2 {fill:#429EFF}
   ]]>
  </style>
  </defs>
  <sodipodi:namedview
     id="base"
     pagecolor="#ffffff"
     bordercolor="#666666"
     borderopacity="1.0"
     inkscape:pageopacity="0.0"
     inkscape:pageshadow="2"
     inkscape:zoom="0.35"
     inkscape:cx="-327.5292"
     inkscape:cy="127.06143"
     inkscape:document-units="mm"
     inkscape:current-layer="_670516992"
     showgrid="false"
     inkscape:window-width="1869"
     inkscape:window-height="1016"
     inkscape:window-x="51"
     inkscape:window-y="27"
     inkscape:window-maximized="1" />
  <metadata
     id="metadata5">
    <rdf:RDF>
      <cc:Work
         rdf:about="">
        <dc:format>image/svg+xml</dc:format>
        <dc:type
           rdf:resource="http://purl.org/dc/dcmitype/StillImage" />
        <dc:title></dc:title>
      </cc:Work>
    </rdf:RDF>
  </metadata>
  <g
     inkscape:label="Capa 1"
     inkscape:groupmode="layer"
     id="layer1"
     transform="translate(-80.233173,-104.63167)">
    <g
       style="clip-rule:evenodd;fill-rule:evenodd;image-rendering:optimizeQuality;shape-rendering:geometricPrecision;text-rendering:geometricPrecision"
       id="Capa_x0020_1"
       transform="matrix(0.01,0,0,0.01,-105.74881,-73.977621)">
  <metadata
   id="CorelCorpID_0Corel-Layer" />

  <sodipodi:namedview
   id="base-3"
   pagecolor="#ffffff"
   bordercolor="#666666"
   borderopacity="1.0"
   inkscape:pageopacity="0.0"
   inkscape:pageshadow="2"
   inkscape:zoom="0.35"
   inkscape:cx="400"
   inkscape:cy="560"
   inkscape:document-units="mm"
   inkscape:current-layer="layer1"
   showgrid="false"
   inkscape:window-width="1366"
   inkscape:window-height="705"
   inkscape:window-x="-8"
   inkscape:window-y="-8"
   inkscape:window-maximized="1" />

  <g
   id="_670516992">
   <path
   style="fill:#112740"
   inkscape:connector-curvature="0"
   class="fil0"
   d="m 19287.738,21099.929 c -20,26 -40,56 -57,83 -36,54 -71,110 -105,167 -7,11 -13,22 -20,33 -362,606 -535,1309 -504,2013 33,756 299,1486 765,2082 28,36 56,71 86,105 -1,-5 -2,-10 -3,-13 -11,-55 -23,-109 -36,-163 -26,-112 -44,-227 -56,-341 v -1 c -10,-129 -14,-258 -17,-387 -3,-114 -6,-229 -4,-344 9,-182 29,-373 72,-550 14,-60 43,-164 28,-226 -3,-12 -8,-24 -13,-36 -26,-61 -48,-127 -69,-191 -26,-83 -50,-168 -73,-252 -26,-100 -51,-201 -71,-302 -32,-164 -41,-332 -44,-499 v -154 c -1,-73 -1,-146 1,-219 2,-85 6,-169 15,-254 19,-184 62,-370 105,-551 z"
   id="path16" />

   <path
   style="fill:#112740"
   inkscape:connector-curvature="0"
   class="fil0"
   d="m 19516.738,23743.929 -18,79 c -115,497 -97,1102 19,1600 7,29 47,197 73,220 82,-6 440,-217 513,-262 124,-76 257,-160 370,-252 l 89,-72 -252,-243 -55,-53 c -66,-68 -131,-137 -194,-208 -179,-205 -334,-429 -466,-667 z"
   id="path18" />

   <path
   style="fill:#3276bf"
   inkscape:connector-curvature="0"
   class="fil1"
   d="m 20108.738,22444.929 c -82,118 -157,243 -225,369 -81,149 -158,303 -222,459 -31,75 -91,226 -91,306 0,40 60,159 79,195 58,112 123,221 191,326 40,62 82,123 126,183 69,95 151,188 230,275 58,63 117,126 179,186 57,56 115,112 176,165 15,13 65,58 88,71 56,-29 262,-250 301,-293 29,-33 59,-67 88,-101 l 71,-85 -91,-135 c -110,-162 -206,-349 -287,-527 -57,-127 -110,-258 -155,-390 -53,-157 -124,-318 -192,-470 -56,-124 -114,-248 -175,-369 -13,-24 -62,-123 -91,-165 z"
   id="path20" />

   <path
   style="fill:#3276bf"
   inkscape:connector-curvature="0"
   class="fil1"
   d="m 20381.738,22104.929 -193,235 142,302 c 30,62 59,124 90,185 -5,-38 -7,-80 -10,-113 -7,-99 -12,-197 -16,-296 z"
   id="path22" />

   <path
   style="fill:#429eff"
   inkscape:connector-curvature="0"
   class="fil2"
   d="m 20487.738,21994.929 -4,254 c -5,266 15,507 64,768 4,19 7,38 12,57 16,70 45,137 74,202 78,176 163,350 246,524 l 257,540 3,-637 c 3,-505 3,-1009 0,-1514 l -3,-713 -121,82 c -59,40 -117,83 -173,126 -102,78 -214,166 -303,258 z"
   id="path24" />

   <path
   style="fill:#429eff"
   inkscape:connector-curvature="0"
   class="fil2"
   d="m 20647.738,21181.929 c -9,26 -20,71 -25,89 -17,66 -33,133 -48,199 -17,79 -35,160 -47,240 l -22,142 c 30,-24 70,-60 81,-70 143,-125 295,-245 455,-347 l 61,-39 -167,-81 c -71,-34 -144,-69 -217,-102 -14,-6 -48,-23 -71,-31 z"
   id="path26" />

   <path
   style="fill:#3276bf"
   inkscape:connector-curvature="0"
   class="fil1"
   d="m 19417.738,21011.929 c -12,34 -23,78 -30,104 -21,81 -40,162 -57,244 -19,90 -37,182 -49,273 -40,293 -35,603 -1,897 34,300 100,612 209,894 l 6,15 49,-134 c 46,-122 99,-243 156,-361 76,-154 163,-316 261,-458 l 106,-152 -328,-689 c -75,-157 -150,-314 -231,-467 -12,-25 -60,-118 -91,-166 z"
   id="path28" />

   <path
   style="fill:#3276bf"
   inkscape:connector-curvature="0"
   class="fil1"
   d="m 19525.738,20955.929 c 5,11 10,22 15,32 19,41 38,82 58,122 61,128 122,256 184,384 69,141 137,282 204,424 39,81 79,163 115,245 6,15 22,51 35,76 10,-11 21,-22 30,-33 36,-40 72,-80 109,-119 52,-58 143,-150 143,-234 0,-42 9,-93 16,-134 10,-66 23,-131 36,-196 13,-62 26,-123 41,-185 11,-42 22,-88 38,-129 2,-5 12,-31 10,-37 -4,-16 -163,-63 -179,-68 -114,-36 -235,-63 -353,-85 -112,-22 -227,-41 -340,-54 -24,-3 -120,-13 -162,-9 z"
   id="path30" />

   <path
   style="fill:#429eff"
   inkscape:connector-curvature="0"
   class="fil2"
   d="m 21139.738,20204.929 c -24,34 -46,68 -69,103 -148,227 -276,481 -371,735 l -24,62 111,46 c 86,35 175,77 256,120 27,15 55,30 82,44 4,2 8,4 13,6 0,-10 0,-19 0,-26 2,-45 2,-89 3,-134 2,-138 3,-276 3,-414 0,-140 -1,-279 -2,-418 -1,-42 -1,-83 -2,-124 z"
   id="path32" />

   <path
   style="fill:#112740"
   inkscape:connector-curvature="0"
   class="fil0"
   d="m 20364.738,18498.929 c -13,13 -24,73 -27,88 -9,60 -11,125 -9,185 2,46 7,93 16,138 15,76 54,187 93,254 l 51,88 129,-102 c 103,-83 224,-166 338,-235 28,-17 138,-86 174,-119 -56,-46 -322,-155 -373,-175 -79,-31 -160,-61 -241,-87 -39,-12 -110,-34 -151,-35 z"
   id="path34" />

   <path
   style="fill:#112740"
   inkscape:connector-curvature="0"
   class="fil0"
   d="m 21142.738,17860.929 -81,13 c -152,24 -302,96 -417,197 -34,30 -65,62 -94,94 -27,30 -138,162 -149,210 38,31 227,98 266,111 19,7 38,13 57,20 65,23 131,47 196,73 42,16 89,35 128,56 16,9 55,30 82,41 5,-35 6,-95 7,-116 4,-97 5,-193 5,-289 z"
   id="path36" />

   <path
   style="fill:#112740"
   inkscape:connector-curvature="0"
   class="fil0"
   d="m 19496.738,20835.929 c 41,15 154,27 181,30 128,11 262,36 387,61 88,17 176,36 263,58 58,14 125,30 179,52 91,38 93,37 121,-57 19,-65 50,-132 78,-193 40,-85 82,-169 127,-252 57,-106 118,-213 185,-313 v -1 l 120,-148 1,-324 -323,127 c -188,73 -383,186 -552,297 -62,40 -122,83 -182,127 -82,61 -162,128 -240,196 -82,71 -163,146 -239,223 -17,17 -84,85 -106,117 z"
   id="path38" />

   <path
   style="fill:#112740"
   inkscape:connector-curvature="0"
   class="fil0"
   d="m 21142.738,18915.929 -99,60 c -68,41 -133,86 -198,131 -65,45 -130,93 -193,142 -16,12 -71,55 -90,76 24,37 148,124 177,143 50,33 110,70 166,92 49,19 140,48 191,49 l 46,1 z"
   id="path40" />

   <path
   style="fill:#112740"
   inkscape:connector-curvature="0"
   class="fil0"
   d="m 23094.738,21099.929 c 20,26 39,56 56,83 36,54 71,110 105,167 7,11 14,22 20,33 362,606 535,1309 504,2013 -33,756 -298,1486 -765,2082 -28,36 -56,71 -85,105 1,-5 2,-10 2,-13 11,-55 23,-109 36,-163 26,-112 44,-227 57,-341 v -1 c 9,-129 14,-258 17,-387 2,-114 5,-229 3,-344 -9,-182 -28,-373 -71,-550 -15,-60 -44,-164 -29,-226 3,-12 8,-24 13,-36 27,-61 49,-127 69,-191 26,-83 51,-168 73,-252 27,-100 51,-201 71,-302 32,-164 41,-332 44,-499 l 1,-154 c 0,-73 0,-146 -1,-219 -2,-85 -7,-169 -15,-254 -20,-184 -63,-370 -105,-551 z"
   id="path42" />

   <path
   style="fill:#112740"
   inkscape:connector-curvature="0"
   class="fil0"
   d="m 22864.738,23743.929 18,79 c 115,497 98,1102 -19,1600 -7,29 -47,197 -73,220 -82,-6 -439,-217 -513,-262 -124,-76 -256,-160 -369,-252 l -89,-72 252,-243 54,-53 c 66,-68 132,-137 194,-208 179,-205 335,-429 466,-667 z"
   id="path44" />

   <path
   style="fill:#3276bf"
   inkscape:connector-curvature="0"
   class="fil1"
   d="m 22272.738,22444.929 c 82,118 157,243 226,369 81,149 157,303 222,459 30,75 90,226 90,306 0,40 -60,159 -79,195 -57,112 -123,221 -191,326 -40,62 -82,123 -125,183 -70,95 -152,188 -231,275 -58,63 -117,126 -178,186 -58,56 -116,112 -177,165 -15,13 -65,58 -88,71 -55,-29 -261,-250 -300,-293 -30,-33 -60,-67 -88,-101 l -72,-85 91,-135 c 110,-162 206,-349 287,-527 57,-127 111,-258 155,-390 53,-157 124,-318 192,-470 56,-124 114,-248 175,-369 13,-24 63,-123 91,-165 z"
   id="path46" />

   <path
   style="fill:#3276bf"
   inkscape:connector-curvature="0"
   class="fil1"
   d="m 22000.738,22104.929 192,235 -142,302 c -29,62 -59,124 -89,185 4,-38 6,-80 9,-113 7,-99 13,-197 17,-296 z"
   id="path48" />

   <path
   style="fill:#429eff"
   inkscape:connector-curvature="0"
   class="fil2"
   d="m 21894.738,21994.929 4,254 c 4,266 -15,507 -65,768 -3,19 -7,38 -12,57 -16,70 -45,137 -74,202 -78,176 -163,350 -246,524 l -257,540 -3,-637 c -2,-505 -2,-1009 0,-1514 l 3,-713 121,82 c 59,40 117,83 174,126 101,78 213,166 302,258 z"
   id="path50" />

   <path
   style="fill:#429eff"
   inkscape:connector-curvature="0"
   class="fil2"
   d="m 21733.738,21181.929 c 10,26 20,71 25,89 17,66 33,133 48,199 17,79 35,160 47,240 l 23,142 c -31,-24 -70,-60 -82,-70 -143,-125 -295,-245 -454,-347 l -61,-39 166,-81 c 72,-34 144,-69 217,-102 14,-6 49,-23 71,-31 z"
   id="path52" />

   <path
   style="fill:#3276bf"
   inkscape:connector-curvature="0"
   class="fil1"
   d="m 22963.738,21011.929 c 12,34 23,78 30,104 21,81 40,162 57,244 19,90 37,182 50,273 40,293 34,603 1,897 -34,300 -101,612 -210,894 l -6,15 -49,-134 c -45,-122 -99,-243 -156,-361 -76,-154 -163,-316 -261,-458 l -106,-152 328,-689 c 75,-157 151,-314 231,-467 13,-25 61,-118 91,-166 z"
   id="path54" />

   <path
   style="fill:#3276bf"
   inkscape:connector-curvature="0"
   class="fil1"
   d="m 22856.738,20955.929 c -5,11 -11,22 -16,32 -19,41 -38,82 -58,122 -61,128 -122,256 -184,384 -68,141 -136,282 -204,424 -38,81 -79,163 -114,245 -7,15 -23,51 -36,76 -10,-11 -21,-22 -30,-33 -36,-40 -72,-80 -108,-119 -53,-58 -143,-150 -144,-234 0,-42 -9,-93 -15,-134 -11,-66 -23,-131 -37,-196 -12,-62 -26,-123 -41,-185 -10,-42 -22,-88 -37,-129 -2,-5 -13,-31 -11,-37 5,-16 163,-63 179,-68 114,-36 236,-63 353,-85 112,-22 227,-41 341,-54 23,-3 119,-13 162,-9 z"
   id="path56" />

   <path
   style="fill:#429eff"
   inkscape:connector-curvature="0"
   class="fil2"
   d="m 21241.738,20204.929 c 24,34 47,68 69,103 149,227 276,481 372,735 l 23,62 -111,46 c -85,35 -174,77 -256,120 -27,15 -55,30 -82,44 -4,2 -8,4 -12,6 -1,-10 -1,-19 -1,-26 -1,-45 -2,-89 -3,-134 -2,-138 -2,-276 -2,-414 0,-140 0,-279 2,-418 0,-42 1,-83 1,-124 z"
   id="path58" />

   <path
   style="fill:#112740"
   inkscape:connector-curvature="0"
   class="fil0"
   d="m 22017.738,18498.929 c 13,13 24,73 26,88 9,60 11,125 9,185 -2,46 -6,93 -15,138 -16,76 -55,187 -94,254 l -51,88 -128,-102 c -104,-83 -225,-166 -338,-235 -29,-17 -138,-86 -174,-119 55,-46 321,-155 372,-175 79,-31 160,-61 242,-87 38,-12 109,-34 151,-35 z"
   id="path60" />

   <path
   style="fill:#112740"
   inkscape:connector-curvature="0"
   class="fil0"
   d="m 21238.738,17860.929 81,13 c 152,24 302,96 418,197 33,30 64,62 94,94 26,30 137,162 148,210 -38,31 -226,98 -266,111 -19,7 -37,13 -56,20 -66,23 -132,47 -197,73 -41,16 -89,35 -128,56 -16,9 -55,30 -82,41 -5,-35 -6,-95 -7,-116 -4,-97 -5,-193 -5,-289 z"
   id="path62" />

   <path
   style="fill:#112740"
   inkscape:connector-curvature="0"
   class="fil0"
   d="m 22884.738,20835.929 c -41,15 -154,27 -181,30 -127,11 -261,36 -387,61 -88,17 -176,36 -263,58 -57,14 -124,30 -179,52 -91,38 -92,37 -121,-57 -19,-65 -50,-132 -78,-193 -39,-85 -82,-169 -126,-252 -57,-106 -118,-213 -185,-313 l -1,-1 -120,-148 -1,-324 323,127 c 189,73 383,186 552,297 62,40 123,83 182,127 83,61 163,128 240,196 82,71 163,146 240,223 16,17 83,85 105,117 z"
   id="path64" />

   <path
   style="fill:#112740"
   inkscape:connector-curvature="0"
   class="fil0"
   d="m 21238.738,18915.929 100,60 c 67,41 133,86 197,131 65,45 130,93 193,142 16,12 71,55 90,76 -24,37 -148,124 -177,143 -50,33 -110,70 -166,92 -49,19 -140,48 -190,49 l -47,1 z"
   id="path66" />

   
   
   
   
   
   
   
   
   
   
   
   
   
   
   
   
   
   
   
   
   
   
   
   
   
   
  </g>

 </g>
  </g>
</svg>
